# xmcd
#
# Track frame offsets: 
#        150
#        14477
#        29897
#        44230
#        57647
#        71452
#        87115
#        101617
#        115455
#        129472
#        142790
#        156250
#        170092
#        182197
#        192525
#        206882
#        220750
#        233967
#        244730
#        257620
#        273122
#        283075
#        294675
#        307392
#
# Disc length: 4420 seconds
#
# Revision: 5
# Processed by: cddbd v1.5.2PL0 Copyright (c) Steve Scherf et al.
# Submitted via: ExactAudioCopy v0.95b2
#
DISCID=88114218
DTITLE=Charley Patton - ''Screamin' and Hollerin' the Blues'' - by The
DTITLE=Masked Marvel Disc 6
DYEAR=2001
DGENRE=Blues
TTITLE0=Ma Rainey/Booze and Blues 
TTITLE1=Walter Rhodes/The Crowing Rooster 
TTITLE2=Furry Lewis/I Will Turn Your Money Green 
TTITLE3=Rube Lacy/Ham Hound Crave 
TTITLE4=Tommy Johnson/Bye Bye Blues 
TTITLE5=Tommy Johnson/Maggie Campbell 
TTITLE6=Tommy Johnson/Big Road Blues 
TTITLE7=William Harris/Kansas City Blues 
TTITLE8=Kid Bailey/Rowdy Blues 
TTITLE9=Kid Bailey/Mississippi Bottom Blues 
TTITLE10=Blind Joe Reynolds/Cold Woman Blues 
TTITLE11=The Mississippi Sheiks/Sitting on Top of the World 
TTITLE12=Charley Jordan/Just a Spoonful 
TTITLE13=Blind Pete and George Ryan/Banty Rooster 
TTITLE14=Big Joe Williams/My Grey Pony 
TTITLE15=The Willie Lofton Trio/Dark Road Blues 
TTITLE16=Unknown Artist/Blues 
TTITLE17=Bukka White/Sic 'Em Dogs 
TTITLE18=Bukka White/Po' Boy 
TTITLE19=Willie Brown/Make Me a Pallet on the Floor 
TTITLE20=Son House/County Farm Blues 
TTITLE21=Howlin' Wolf/Saddle My Pony 
TTITLE22=Howlin' Wolf/Forty Four 
TTITLE23=Roebuck "Pops" Staples and the Staple Singers/Too Close 
EXTD=YEAR: 2001
EXTT0=
EXTT1=
EXTT2=
EXTT3=
EXTT4=
EXTT5=
EXTT6=
EXTT7=
EXTT8=
EXTT9=
EXTT10=
EXTT11=
EXTT12=
EXTT13=
EXTT14=
EXTT15=
EXTT16=
EXTT17=
EXTT18=
EXTT19=
EXTT20=
EXTT21=
EXTT22=
EXTT23=
PLAYORDER=
